# xmcd CD database file
#
# Track frame offsets:
#	150
#	21885
#	47841
#	71318
#	87247
#	111000
#	120690
#	134578
#	158011
#	173529
#	188498
#
# Disc length: 2809 seconds
#
# Revision: 0
# Processed by: cddbd v1.5.2PL0 Copyright (c) Steve Scherf et al.
# Submitted via: CDex 1.51
#
DISCID=860af70b
DTITLE=Viarosa - Where the Killers Run
DYEAR=2006
DGENRE=Country
TTITLE0=Blindfold
TTITLE1=Only Child
TTITLE2=Blood From a Stone
TTITLE3=Poor Man's Prayer
TTITLE4=Where the Killers Run
TTITLE5=Call to Arms
TTITLE6=All This Worry (Will be Over Soon)
TTITLE7=Boy
TTITLE8=The Violet Hour
TTITLE9=Soul Light
TTITLE10=Wake
EXTD=YEAR: 2006
EXTT0=
EXTT1=
EXTT2=
EXTT3=
EXTT4=
EXTT5=
EXTT6=
EXTT7=
EXTT8=
EXTT9=
EXTT10=
PLAYORDER=
